<svg xmlns="http://www.w3.org/2000/svg" viewBox="0 0 485 250" width="485" height="250" role="img" aria-label="Loaded property_2 DFA: stay on bomb once before leaving">
<defs>
<marker id="dfa-arrow" markerWidth="9" markerHeight="9" refX="8" refY="3" orient="auto" markerUnits="strokeWidth">
<path d="M0,0 L0,6 L8,3 z" fill="#374151"/>
</marker>
</defs>
<rect width="100%" height="100%" fill="#ffffff"/>
<text x="18" y="26" font-family="sans-serif" font-size="16" font-weight="700" fill="#111827">Loaded property_2 DFA: stay on bomb once before leaving</text>
<line x1="22.0" y1="122" x2="43.0" y2="122" stroke="#374151" stroke-width="2.5" marker-end="url(#dfa-arrow)"/>
<path d="M96.0 122 C127.0 76, 127.0 76, 159.0 122" fill="none" stroke="#374151" stroke-width="2" marker-end="url(#dfa-arrow)"/>
<text x="127.0" y="70" text-anchor="middle" font-family="sans-serif" font-size="11" font-weight="700" fill="#111827">bomb</text>
<path d="M211.0 122 C242.0 76, 242.0 76, 274.0 122" fill="none" stroke="#374151" stroke-width="2" marker-end="url(#dfa-arrow)"/>
<text x="242.0" y="70" text-anchor="middle" font-family="sans-serif" font-size="11" font-weight="700" fill="#111827">bomb</text>
<path d="M211.0 122 C300.0 76, 300.0 76, 389.0 122" fill="none" stroke="#374151" stroke-width="2" marker-end="url(#dfa-arrow)"/>
<text x="300.0" y="70" text-anchor="middle" font-family="sans-serif" font-size="11" font-weight="700" fill="#111827">not bomb</text>
<path d="M326.0 122 C185.0 174, 185.0 174, 44.0 122" fill="none" stroke="#374151" stroke-width="2" marker-end="url(#dfa-arrow)"/>
<text x="185.0" y="190" text-anchor="middle" font-family="sans-serif" font-size="11" font-weight="700" fill="#111827">not bomb</text>
<circle cx="70.0" cy="122" r="26" fill="#dcfce7" stroke="#166534" stroke-width="3"/>
<text x="70.0" y="119" text-anchor="middle" font-family="sans-serif" font-size="13" font-weight="700" fill="#111827">q0</text>
<text x="70.0" y="137" text-anchor="middle" font-family="sans-serif" font-size="10" fill="#374151">safe</text>
<circle cx="185.0" cy="122" r="26" fill="#dcfce7" stroke="#166534" stroke-width="3"/>
<text x="185.0" y="119" text-anchor="middle" font-family="sans-serif" font-size="13" font-weight="700" fill="#111827">q1</text>
<text x="185.0" y="137" text-anchor="middle" font-family="sans-serif" font-size="10" fill="#374151">armed</text>
<circle cx="300.0" cy="122" r="26" fill="#dcfce7" stroke="#166534" stroke-width="3"/>
<text x="300.0" y="119" text-anchor="middle" font-family="sans-serif" font-size="13" font-weight="700" fill="#111827">q2</text>
<text x="300.0" y="137" text-anchor="middle" font-family="sans-serif" font-size="10" fill="#374151">diffused</text>
<circle cx="415.0" cy="122" r="26" fill="#fee2e2" stroke="#991b1b" stroke-width="3"/>
<circle cx="415.0" cy="122" r="19" fill="none" stroke="#991b1b" stroke-width="2"/>
<text x="415.0" y="119" text-anchor="middle" font-family="sans-serif" font-size="13" font-weight="700" fill="#111827">q3</text>
<text x="415.0" y="137" text-anchor="middle" font-family="sans-serif" font-size="10" fill="#374151">unsafe</text>
</svg>
