<svg xmlns="http://www.w3.org/2000/svg" viewBox="0 0 634 444" width="634" height="444" role="img" aria-label="V2 seed 14 reaches a bomb, then waits without medic">
<defs>
<marker id="trace-arrow" markerWidth="8" markerHeight="8" refX="7" refY="3" orient="auto" markerUnits="strokeWidth">
<path d="M0,0 L0,6 L7,3 z" fill="#1f2937"/>
</marker>
</defs>
<rect width="100%" height="100%" fill="#ffffff"/>
<text x="18" y="25" font-family="sans-serif" font-size="16" font-weight="700" fill="#111827">V2 seed 14 reaches a bomb, then waits without medic</text>
<rect x="42" y="42" width="24" height="24" fill="#f8fafc" stroke="#d1d5db" stroke-width="1"/>
<rect x="66" y="42" width="24" height="24" fill="#eef2f7" stroke="#d1d5db" stroke-width="1"/>
<rect x="90" y="42" width="24" height="24" fill="#f8fafc" stroke="#d1d5db" stroke-width="1"/>
<rect x="114" y="42" width="24" height="24" fill="#eef2f7" stroke="#d1d5db" stroke-width="1"/>
<rect x="138" y="42" width="24" height="24" fill="#f8fafc" stroke="#d1d5db" stroke-width="1"/>
<rect x="162" y="42" width="24" height="24" fill="#eef2f7" stroke="#d1d5db" stroke-width="1"/>
<rect x="186" y="42" width="24" height="24" fill="#f8fafc" stroke="#d1d5db" stroke-width="1"/>
<rect x="210" y="42" width="24" height="24" fill="#eef2f7" stroke="#d1d5db" stroke-width="1"/>
<rect x="234" y="42" width="24" height="24" fill="#f8fafc" stroke="#d1d5db" stroke-width="1"/>
<rect x="258" y="42" width="24" height="24" fill="#eef2f7" stroke="#d1d5db" stroke-width="1"/>
<rect x="282" y="42" width="24" height="24" fill="#f8fafc" stroke="#d1d5db" stroke-width="1"/>
<rect x="306" y="42" width="24" height="24" fill="#eef2f7" stroke="#d1d5db" stroke-width="1"/>
<rect x="330" y="42" width="24" height="24" fill="#f8fafc" stroke="#d1d5db" stroke-width="1"/>
<rect x="354" y="42" width="24" height="24" fill="#eef2f7" stroke="#d1d5db" stroke-width="1"/>
<rect x="378" y="42" width="24" height="24" fill="#f8fafc" stroke="#d1d5db" stroke-width="1"/>
<rect x="42" y="66" width="24" height="24" fill="#eef2f7" stroke="#d1d5db" stroke-width="1"/>
<rect x="66" y="66" width="24" height="24" fill="#f8fafc" stroke="#d1d5db" stroke-width="1"/>
<rect x="90" y="66" width="24" height="24" fill="#eef2f7" stroke="#d1d5db" stroke-width="1"/>
<rect x="114" y="66" width="24" height="24" fill="#f8fafc" stroke="#d1d5db" stroke-width="1"/>
<rect x="138" y="66" width="24" height="24" fill="#eef2f7" stroke="#d1d5db" stroke-width="1"/>
<rect x="162" y="66" width="24" height="24" fill="#f8fafc" stroke="#d1d5db" stroke-width="1"/>
<rect x="186" y="66" width="24" height="24" fill="#eef2f7" stroke="#d1d5db" stroke-width="1"/>
<rect x="210" y="66" width="24" height="24" fill="#f8fafc" stroke="#d1d5db" stroke-width="1"/>
<rect x="234" y="66" width="24" height="24" fill="#eef2f7" stroke="#d1d5db" stroke-width="1"/>
<rect x="258" y="66" width="24" height="24" fill="#f8fafc" stroke="#d1d5db" stroke-width="1"/>
<rect x="282" y="66" width="24" height="24" fill="#eef2f7" stroke="#d1d5db" stroke-width="1"/>
<rect x="306" y="66" width="24" height="24" fill="#f8fafc" stroke="#d1d5db" stroke-width="1"/>
<rect x="330" y="66" width="24" height="24" fill="#eef2f7" stroke="#d1d5db" stroke-width="1"/>
<rect x="354" y="66" width="24" height="24" fill="#f8fafc" stroke="#d1d5db" stroke-width="1"/>
<rect x="378" y="66" width="24" height="24" fill="#eef2f7" stroke="#d1d5db" stroke-width="1"/>
<rect x="42" y="90" width="24" height="24" fill="#f8fafc" stroke="#d1d5db" stroke-width="1"/>
<rect x="66" y="90" width="24" height="24" fill="#eef2f7" stroke="#d1d5db" stroke-width="1"/>
<rect x="90" y="90" width="24" height="24" fill="#f8fafc" stroke="#d1d5db" stroke-width="1"/>
<rect x="114" y="90" width="24" height="24" fill="#eef2f7" stroke="#d1d5db" stroke-width="1"/>
<rect x="138" y="90" width="24" height="24" fill="#f8fafc" stroke="#d1d5db" stroke-width="1"/>
<rect x="162" y="90" width="24" height="24" fill="#eef2f7" stroke="#d1d5db" stroke-width="1"/>
<rect x="186" y="90" width="24" height="24" fill="#f8fafc" stroke="#d1d5db" stroke-width="1"/>
<rect x="210" y="90" width="24" height="24" fill="#eef2f7" stroke="#d1d5db" stroke-width="1"/>
<rect x="234" y="90" width="24" height="24" fill="#f8fafc" stroke="#d1d5db" stroke-width="1"/>
<rect x="258" y="90" width="24" height="24" fill="#eef2f7" stroke="#d1d5db" stroke-width="1"/>
<rect x="282" y="90" width="24" height="24" fill="#f8fafc" stroke="#d1d5db" stroke-width="1"/>
<rect x="306" y="90" width="24" height="24" fill="#eef2f7" stroke="#d1d5db" stroke-width="1"/>
<rect x="330" y="90" width="24" height="24" fill="#f8fafc" stroke="#d1d5db" stroke-width="1"/>
<rect x="354" y="90" width="24" height="24" fill="#eef2f7" stroke="#d1d5db" stroke-width="1"/>
<rect x="378" y="90" width="24" height="24" fill="#f8fafc" stroke="#d1d5db" stroke-width="1"/>
<rect x="42" y="114" width="24" height="24" fill="#eef2f7" stroke="#d1d5db" stroke-width="1"/>
<rect x="66" y="114" width="24" height="24" fill="#f8fafc" stroke="#d1d5db" stroke-width="1"/>
<rect x="90" y="114" width="24" height="24" fill="#eef2f7" stroke="#d1d5db" stroke-width="1"/>
<rect x="114" y="114" width="24" height="24" fill="#f8fafc" stroke="#d1d5db" stroke-width="1"/>
<rect x="138" y="114" width="24" height="24" fill="#eef2f7" stroke="#d1d5db" stroke-width="1"/>
<rect x="162" y="114" width="24" height="24" fill="#f8fafc" stroke="#d1d5db" stroke-width="1"/>
<rect x="186" y="114" width="24" height="24" fill="#eef2f7" stroke="#d1d5db" stroke-width="1"/>
<rect x="210" y="114" width="24" height="24" fill="#f8fafc" stroke="#d1d5db" stroke-width="1"/>
<rect x="234" y="114" width="24" height="24" fill="#eef2f7" stroke="#d1d5db" stroke-width="1"/>
<rect x="258" y="114" width="24" height="24" fill="#f8fafc" stroke="#d1d5db" stroke-width="1"/>
<rect x="282" y="114" width="24" height="24" fill="#eef2f7" stroke="#d1d5db" stroke-width="1"/>
<rect x="306" y="114" width="24" height="24" fill="#f8fafc" stroke="#d1d5db" stroke-width="1"/>
<rect x="330" y="114" width="24" height="24" fill="#eef2f7" stroke="#d1d5db" stroke-width="1"/>
<rect x="354" y="114" width="24" height="24" fill="#f8fafc" stroke="#d1d5db" stroke-width="1"/>
<rect x="378" y="114" width="24" height="24" fill="#eef2f7" stroke="#d1d5db" stroke-width="1"/>
<rect x="42" y="138" width="24" height="24" fill="#f8fafc" stroke="#d1d5db" stroke-width="1"/>
<rect x="66" y="138" width="24" height="24" fill="#eef2f7" stroke="#d1d5db" stroke-width="1"/>
<rect x="90" y="138" width="24" height="24" fill="#f8fafc" stroke="#d1d5db" stroke-width="1"/>
<rect x="114" y="138" width="24" height="24" fill="#eef2f7" stroke="#d1d5db" stroke-width="1"/>
<rect x="138" y="138" width="24" height="24" fill="#f8fafc" stroke="#d1d5db" stroke-width="1"/>
<rect x="162" y="138" width="24" height="24" fill="#eef2f7" stroke="#d1d5db" stroke-width="1"/>
<rect x="186" y="138" width="24" height="24" fill="#f8fafc" stroke="#d1d5db" stroke-width="1"/>
<rect x="210" y="138" width="24" height="24" fill="#eef2f7" stroke="#d1d5db" stroke-width="1"/>
<rect x="234" y="138" width="24" height="24" fill="#f8fafc" stroke="#d1d5db" stroke-width="1"/>
<rect x="258" y="138" width="24" height="24" fill="#eef2f7" stroke="#d1d5db" stroke-width="1"/>
<rect x="282" y="138" width="24" height="24" fill="#f8fafc" stroke="#d1d5db" stroke-width="1"/>
<rect x="306" y="138" width="24" height="24" fill="#eef2f7" stroke="#d1d5db" stroke-width="1"/>
<rect x="330" y="138" width="24" height="24" fill="#f8fafc" stroke="#d1d5db" stroke-width="1"/>
<rect x="354" y="138" width="24" height="24" fill="#eef2f7" stroke="#d1d5db" stroke-width="1"/>
<rect x="378" y="138" width="24" height="24" fill="#f8fafc" stroke="#d1d5db" stroke-width="1"/>
<rect x="42" y="162" width="24" height="24" fill="#eef2f7" stroke="#d1d5db" stroke-width="1"/>
<rect x="66" y="162" width="24" height="24" fill="#f8fafc" stroke="#d1d5db" stroke-width="1"/>
<rect x="90" y="162" width="24" height="24" fill="#eef2f7" stroke="#d1d5db" stroke-width="1"/>
<rect x="114" y="162" width="24" height="24" fill="#f8fafc" stroke="#d1d5db" stroke-width="1"/>
<rect x="138" y="162" width="24" height="24" fill="#eef2f7" stroke="#d1d5db" stroke-width="1"/>
<rect x="162" y="162" width="24" height="24" fill="#f8fafc" stroke="#d1d5db" stroke-width="1"/>
<rect x="186" y="162" width="24" height="24" fill="#eef2f7" stroke="#d1d5db" stroke-width="1"/>
<rect x="210" y="162" width="24" height="24" fill="#f8fafc" stroke="#d1d5db" stroke-width="1"/>
<rect x="234" y="162" width="24" height="24" fill="#eef2f7" stroke="#d1d5db" stroke-width="1"/>
<rect x="258" y="162" width="24" height="24" fill="#f8fafc" stroke="#d1d5db" stroke-width="1"/>
<rect x="282" y="162" width="24" height="24" fill="#eef2f7" stroke="#d1d5db" stroke-width="1"/>
<rect x="306" y="162" width="24" height="24" fill="#f8fafc" stroke="#d1d5db" stroke-width="1"/>
<rect x="330" y="162" width="24" height="24" fill="#eef2f7" stroke="#d1d5db" stroke-width="1"/>
<rect x="354" y="162" width="24" height="24" fill="#f8fafc" stroke="#d1d5db" stroke-width="1"/>
<rect x="378" y="162" width="24" height="24" fill="#eef2f7" stroke="#d1d5db" stroke-width="1"/>
<rect x="42" y="186" width="24" height="24" fill="#f8fafc" stroke="#d1d5db" stroke-width="1"/>
<rect x="66" y="186" width="24" height="24" fill="#eef2f7" stroke="#d1d5db" stroke-width="1"/>
<rect x="90" y="186" width="24" height="24" fill="#f8fafc" stroke="#d1d5db" stroke-width="1"/>
<rect x="114" y="186" width="24" height="24" fill="#eef2f7" stroke="#d1d5db" stroke-width="1"/>
<rect x="138" y="186" width="24" height="24" fill="#f8fafc" stroke="#d1d5db" stroke-width="1"/>
<rect x="162" y="186" width="24" height="24" fill="#eef2f7" stroke="#d1d5db" stroke-width="1"/>
<rect x="186" y="186" width="24" height="24" fill="#f8fafc" stroke="#d1d5db" stroke-width="1"/>
<rect x="210" y="186" width="24" height="24" fill="#eef2f7" stroke="#d1d5db" stroke-width="1"/>
<rect x="234" y="186" width="24" height="24" fill="#f8fafc" stroke="#d1d5db" stroke-width="1"/>
<rect x="258" y="186" width="24" height="24" fill="#eef2f7" stroke="#d1d5db" stroke-width="1"/>
<rect x="282" y="186" width="24" height="24" fill="#f8fafc" stroke="#d1d5db" stroke-width="1"/>
<rect x="306" y="186" width="24" height="24" fill="#eef2f7" stroke="#d1d5db" stroke-width="1"/>
<rect x="330" y="186" width="24" height="24" fill="#f8fafc" stroke="#d1d5db" stroke-width="1"/>
<rect x="354" y="186" width="24" height="24" fill="#eef2f7" stroke="#d1d5db" stroke-width="1"/>
<rect x="378" y="186" width="24" height="24" fill="#f8fafc" stroke="#d1d5db" stroke-width="1"/>
<rect x="42" y="210" width="24" height="24" fill="#eef2f7" stroke="#d1d5db" stroke-width="1"/>
<rect x="66" y="210" width="24" height="24" fill="#f8fafc" stroke="#d1d5db" stroke-width="1"/>
<rect x="90" y="210" width="24" height="24" fill="#eef2f7" stroke="#d1d5db" stroke-width="1"/>
<rect x="114" y="210" width="24" height="24" fill="#f8fafc" stroke="#d1d5db" stroke-width="1"/>
<rect x="138" y="210" width="24" height="24" fill="#eef2f7" stroke="#d1d5db" stroke-width="1"/>
<rect x="162" y="210" width="24" height="24" fill="#f8fafc" stroke="#d1d5db" stroke-width="1"/>
<rect x="186" y="210" width="24" height="24" fill="#eef2f7" stroke="#d1d5db" stroke-width="1"/>
<rect x="210" y="210" width="24" height="24" fill="#f8fafc" stroke="#d1d5db" stroke-width="1"/>
<rect x="234" y="210" width="24" height="24" fill="#eef2f7" stroke="#d1d5db" stroke-width="1"/>
<rect x="258" y="210" width="24" height="24" fill="#f8fafc" stroke="#d1d5db" stroke-width="1"/>
<rect x="282" y="210" width="24" height="24" fill="#eef2f7" stroke="#d1d5db" stroke-width="1"/>
<rect x="306" y="210" width="24" height="24" fill="#f8fafc" stroke="#d1d5db" stroke-width="1"/>
<rect x="330" y="210" width="24" height="24" fill="#eef2f7" stroke="#d1d5db" stroke-width="1"/>
<rect x="354" y="210" width="24" height="24" fill="#f8fafc" stroke="#d1d5db" stroke-width="1"/>
<rect x="378" y="210" width="24" height="24" fill="#eef2f7" stroke="#d1d5db" stroke-width="1"/>
<rect x="42" y="234" width="24" height="24" fill="#f8fafc" stroke="#d1d5db" stroke-width="1"/>
<rect x="66" y="234" width="24" height="24" fill="#eef2f7" stroke="#d1d5db" stroke-width="1"/>
<rect x="90" y="234" width="24" height="24" fill="#f8fafc" stroke="#d1d5db" stroke-width="1"/>
<rect x="114" y="234" width="24" height="24" fill="#eef2f7" stroke="#d1d5db" stroke-width="1"/>
<rect x="138" y="234" width="24" height="24" fill="#f8fafc" stroke="#d1d5db" stroke-width="1"/>
<rect x="162" y="234" width="24" height="24" fill="#eef2f7" stroke="#d1d5db" stroke-width="1"/>
<rect x="186" y="234" width="24" height="24" fill="#f8fafc" stroke="#d1d5db" stroke-width="1"/>
<rect x="210" y="234" width="24" height="24" fill="#eef2f7" stroke="#d1d5db" stroke-width="1"/>
<rect x="234" y="234" width="24" height="24" fill="#f8fafc" stroke="#d1d5db" stroke-width="1"/>
<rect x="258" y="234" width="24" height="24" fill="#eef2f7" stroke="#d1d5db" stroke-width="1"/>
<rect x="282" y="234" width="24" height="24" fill="#f8fafc" stroke="#d1d5db" stroke-width="1"/>
<rect x="306" y="234" width="24" height="24" fill="#eef2f7" stroke="#d1d5db" stroke-width="1"/>
<rect x="330" y="234" width="24" height="24" fill="#f8fafc" stroke="#d1d5db" stroke-width="1"/>
<rect x="354" y="234" width="24" height="24" fill="#eef2f7" stroke="#d1d5db" stroke-width="1"/>
<rect x="378" y="234" width="24" height="24" fill="#f8fafc" stroke="#d1d5db" stroke-width="1"/>
<rect x="42" y="258" width="24" height="24" fill="#eef2f7" stroke="#d1d5db" stroke-width="1"/>
<rect x="66" y="258" width="24" height="24" fill="#f8fafc" stroke="#d1d5db" stroke-width="1"/>
<rect x="90" y="258" width="24" height="24" fill="#eef2f7" stroke="#d1d5db" stroke-width="1"/>
<rect x="114" y="258" width="24" height="24" fill="#f8fafc" stroke="#d1d5db" stroke-width="1"/>
<rect x="138" y="258" width="24" height="24" fill="#eef2f7" stroke="#d1d5db" stroke-width="1"/>
<rect x="162" y="258" width="24" height="24" fill="#f8fafc" stroke="#d1d5db" stroke-width="1"/>
<rect x="186" y="258" width="24" height="24" fill="#eef2f7" stroke="#d1d5db" stroke-width="1"/>
<rect x="210" y="258" width="24" height="24" fill="#f8fafc" stroke="#d1d5db" stroke-width="1"/>
<rect x="234" y="258" width="24" height="24" fill="#eef2f7" stroke="#d1d5db" stroke-width="1"/>
<rect x="258" y="258" width="24" height="24" fill="#f8fafc" stroke="#d1d5db" stroke-width="1"/>
<rect x="282" y="258" width="24" height="24" fill="#eef2f7" stroke="#d1d5db" stroke-width="1"/>
<rect x="306" y="258" width="24" height="24" fill="#f8fafc" stroke="#d1d5db" stroke-width="1"/>
<rect x="330" y="258" width="24" height="24" fill="#eef2f7" stroke="#d1d5db" stroke-width="1"/>
<rect x="354" y="258" width="24" height="24" fill="#f8fafc" stroke="#d1d5db" stroke-width="1"/>
<rect x="378" y="258" width="24" height="24" fill="#eef2f7" stroke="#d1d5db" stroke-width="1"/>
<rect x="42" y="282" width="24" height="24" fill="#f8fafc" stroke="#d1d5db" stroke-width="1"/>
<rect x="66" y="282" width="24" height="24" fill="#eef2f7" stroke="#d1d5db" stroke-width="1"/>
<rect x="90" y="282" width="24" height="24" fill="#f8fafc" stroke="#d1d5db" stroke-width="1"/>
<rect x="114" y="282" width="24" height="24" fill="#eef2f7" stroke="#d1d5db" stroke-width="1"/>
<rect x="138" y="282" width="24" height="24" fill="#f8fafc" stroke="#d1d5db" stroke-width="1"/>
<rect x="162" y="282" width="24" height="24" fill="#eef2f7" stroke="#d1d5db" stroke-width="1"/>
<rect x="186" y="282" width="24" height="24" fill="#f8fafc" stroke="#d1d5db" stroke-width="1"/>
<rect x="210" y="282" width="24" height="24" fill="#eef2f7" stroke="#d1d5db" stroke-width="1"/>
<rect x="234" y="282" width="24" height="24" fill="#f8fafc" stroke="#d1d5db" stroke-width="1"/>
<rect x="258" y="282" width="24" height="24" fill="#eef2f7" stroke="#d1d5db" stroke-width="1"/>
<rect x="282" y="282" width="24" height="24" fill="#f8fafc" stroke="#d1d5db" stroke-width="1"/>
<rect x="306" y="282" width="24" height="24" fill="#eef2f7" stroke="#d1d5db" stroke-width="1"/>
<rect x="330" y="282" width="24" height="24" fill="#f8fafc" stroke="#d1d5db" stroke-width="1"/>
<rect x="354" y="282" width="24" height="24" fill="#eef2f7" stroke="#d1d5db" stroke-width="1"/>
<rect x="378" y="282" width="24" height="24" fill="#f8fafc" stroke="#d1d5db" stroke-width="1"/>
<rect x="42" y="306" width="24" height="24" fill="#eef2f7" stroke="#d1d5db" stroke-width="1"/>
<rect x="66" y="306" width="24" height="24" fill="#f8fafc" stroke="#d1d5db" stroke-width="1"/>
<rect x="90" y="306" width="24" height="24" fill="#eef2f7" stroke="#d1d5db" stroke-width="1"/>
<rect x="114" y="306" width="24" height="24" fill="#f8fafc" stroke="#d1d5db" stroke-width="1"/>
<rect x="138" y="306" width="24" height="24" fill="#eef2f7" stroke="#d1d5db" stroke-width="1"/>
<rect x="162" y="306" width="24" height="24" fill="#f8fafc" stroke="#d1d5db" stroke-width="1"/>
<rect x="186" y="306" width="24" height="24" fill="#eef2f7" stroke="#d1d5db" stroke-width="1"/>
<rect x="210" y="306" width="24" height="24" fill="#f8fafc" stroke="#d1d5db" stroke-width="1"/>
<rect x="234" y="306" width="24" height="24" fill="#eef2f7" stroke="#d1d5db" stroke-width="1"/>
<rect x="258" y="306" width="24" height="24" fill="#f8fafc" stroke="#d1d5db" stroke-width="1"/>
<rect x="282" y="306" width="24" height="24" fill="#eef2f7" stroke="#d1d5db" stroke-width="1"/>
<rect x="306" y="306" width="24" height="24" fill="#f8fafc" stroke="#d1d5db" stroke-width="1"/>
<rect x="330" y="306" width="24" height="24" fill="#eef2f7" stroke="#d1d5db" stroke-width="1"/>
<rect x="354" y="306" width="24" height="24" fill="#f8fafc" stroke="#d1d5db" stroke-width="1"/>
<rect x="378" y="306" width="24" height="24" fill="#eef2f7" stroke="#d1d5db" stroke-width="1"/>
<rect x="42" y="330" width="24" height="24" fill="#f8fafc" stroke="#d1d5db" stroke-width="1"/>
<rect x="66" y="330" width="24" height="24" fill="#eef2f7" stroke="#d1d5db" stroke-width="1"/>
<rect x="90" y="330" width="24" height="24" fill="#f8fafc" stroke="#d1d5db" stroke-width="1"/>
<rect x="114" y="330" width="24" height="24" fill="#eef2f7" stroke="#d1d5db" stroke-width="1"/>
<rect x="138" y="330" width="24" height="24" fill="#f8fafc" stroke="#d1d5db" stroke-width="1"/>
<rect x="162" y="330" width="24" height="24" fill="#eef2f7" stroke="#d1d5db" stroke-width="1"/>
<rect x="186" y="330" width="24" height="24" fill="#f8fafc" stroke="#d1d5db" stroke-width="1"/>
<rect x="210" y="330" width="24" height="24" fill="#eef2f7" stroke="#d1d5db" stroke-width="1"/>
<rect x="234" y="330" width="24" height="24" fill="#f8fafc" stroke="#d1d5db" stroke-width="1"/>
<rect x="258" y="330" width="24" height="24" fill="#eef2f7" stroke="#d1d5db" stroke-width="1"/>
<rect x="282" y="330" width="24" height="24" fill="#f8fafc" stroke="#d1d5db" stroke-width="1"/>
<rect x="306" y="330" width="24" height="24" fill="#eef2f7" stroke="#d1d5db" stroke-width="1"/>
<rect x="330" y="330" width="24" height="24" fill="#f8fafc" stroke="#d1d5db" stroke-width="1"/>
<rect x="354" y="330" width="24" height="24" fill="#eef2f7" stroke="#d1d5db" stroke-width="1"/>
<rect x="378" y="330" width="24" height="24" fill="#f8fafc" stroke="#d1d5db" stroke-width="1"/>
<rect x="42" y="354" width="24" height="24" fill="#eef2f7" stroke="#d1d5db" stroke-width="1"/>
<rect x="66" y="354" width="24" height="24" fill="#f8fafc" stroke="#d1d5db" stroke-width="1"/>
<rect x="90" y="354" width="24" height="24" fill="#eef2f7" stroke="#d1d5db" stroke-width="1"/>
<rect x="114" y="354" width="24" height="24" fill="#f8fafc" stroke="#d1d5db" stroke-width="1"/>
<rect x="138" y="354" width="24" height="24" fill="#eef2f7" stroke="#d1d5db" stroke-width="1"/>
<rect x="162" y="354" width="24" height="24" fill="#f8fafc" stroke="#d1d5db" stroke-width="1"/>
<rect x="186" y="354" width="24" height="24" fill="#eef2f7" stroke="#d1d5db" stroke-width="1"/>
<rect x="210" y="354" width="24" height="24" fill="#f8fafc" stroke="#d1d5db" stroke-width="1"/>
<rect x="234" y="354" width="24" height="24" fill="#eef2f7" stroke="#d1d5db" stroke-width="1"/>
<rect x="258" y="354" width="24" height="24" fill="#f8fafc" stroke="#d1d5db" stroke-width="1"/>
<rect x="282" y="354" width="24" height="24" fill="#eef2f7" stroke="#d1d5db" stroke-width="1"/>
<rect x="306" y="354" width="24" height="24" fill="#f8fafc" stroke="#d1d5db" stroke-width="1"/>
<rect x="330" y="354" width="24" height="24" fill="#eef2f7" stroke="#d1d5db" stroke-width="1"/>
<rect x="354" y="354" width="24" height="24" fill="#f8fafc" stroke="#d1d5db" stroke-width="1"/>
<rect x="378" y="354" width="24" height="24" fill="#eef2f7" stroke="#d1d5db" stroke-width="1"/>
<rect x="42" y="378" width="24" height="24" fill="#f8fafc" stroke="#d1d5db" stroke-width="1"/>
<rect x="66" y="378" width="24" height="24" fill="#eef2f7" stroke="#d1d5db" stroke-width="1"/>
<rect x="90" y="378" width="24" height="24" fill="#f8fafc" stroke="#d1d5db" stroke-width="1"/>
<rect x="114" y="378" width="24" height="24" fill="#eef2f7" stroke="#d1d5db" stroke-width="1"/>
<rect x="138" y="378" width="24" height="24" fill="#f8fafc" stroke="#d1d5db" stroke-width="1"/>
<rect x="162" y="378" width="24" height="24" fill="#eef2f7" stroke="#d1d5db" stroke-width="1"/>
<rect x="186" y="378" width="24" height="24" fill="#f8fafc" stroke="#d1d5db" stroke-width="1"/>
<rect x="210" y="378" width="24" height="24" fill="#eef2f7" stroke="#d1d5db" stroke-width="1"/>
<rect x="234" y="378" width="24" height="24" fill="#f8fafc" stroke="#d1d5db" stroke-width="1"/>
<rect x="258" y="378" width="24" height="24" fill="#eef2f7" stroke="#d1d5db" stroke-width="1"/>
<rect x="282" y="378" width="24" height="24" fill="#f8fafc" stroke="#d1d5db" stroke-width="1"/>
<rect x="306" y="378" width="24" height="24" fill="#eef2f7" stroke="#d1d5db" stroke-width="1"/>
<rect x="330" y="378" width="24" height="24" fill="#f8fafc" stroke="#d1d5db" stroke-width="1"/>
<rect x="354" y="378" width="24" height="24" fill="#eef2f7" stroke="#d1d5db" stroke-width="1"/>
<rect x="378" y="378" width="24" height="24" fill="#f8fafc" stroke="#d1d5db" stroke-width="1"/>
<rect x="42" y="114" width="24" height="24" fill="#334155" stroke="#1f2937" stroke-width="1"/>
<rect x="42" y="138" width="24" height="24" fill="#334155" stroke="#1f2937" stroke-width="1"/>
<rect x="42" y="162" width="24" height="24" fill="#334155" stroke="#1f2937" stroke-width="1"/>
<rect x="42" y="378" width="24" height="24" fill="#334155" stroke="#1f2937" stroke-width="1"/>
<rect x="42" y="354" width="24" height="24" fill="#334155" stroke="#1f2937" stroke-width="1"/>
<rect x="42" y="330" width="24" height="24" fill="#334155" stroke="#1f2937" stroke-width="1"/>
<rect x="42" y="306" width="24" height="24" fill="#334155" stroke="#1f2937" stroke-width="1"/>
<rect x="42" y="282" width="24" height="24" fill="#334155" stroke="#1f2937" stroke-width="1"/>
<rect x="210" y="258" width="24" height="24" fill="#334155" stroke="#1f2937" stroke-width="1"/>
<rect x="66" y="378" width="24" height="24" fill="#334155" stroke="#1f2937" stroke-width="1"/>
<rect x="90" y="378" width="24" height="24" fill="#334155" stroke="#1f2937" stroke-width="1"/>
<rect x="114" y="378" width="24" height="24" fill="#334155" stroke="#1f2937" stroke-width="1"/>
<rect x="138" y="378" width="24" height="24" fill="#334155" stroke="#1f2937" stroke-width="1"/>
<rect x="162" y="378" width="24" height="24" fill="#334155" stroke="#1f2937" stroke-width="1"/>
<rect x="186" y="378" width="24" height="24" fill="#334155" stroke="#1f2937" stroke-width="1"/>
<rect x="282" y="378" width="24" height="24" fill="#334155" stroke="#1f2937" stroke-width="1"/>
<rect x="306" y="378" width="24" height="24" fill="#334155" stroke="#1f2937" stroke-width="1"/>
<rect x="330" y="378" width="24" height="24" fill="#334155" stroke="#1f2937" stroke-width="1"/>
<rect x="354" y="378" width="24" height="24" fill="#334155" stroke="#1f2937" stroke-width="1"/>
<rect x="378" y="378" width="24" height="24" fill="#334155" stroke="#1f2937" stroke-width="1"/>
<rect x="378" y="354" width="24" height="24" fill="#334155" stroke="#1f2937" stroke-width="1"/>
<rect x="114" y="330" width="24" height="24" fill="#334155" stroke="#1f2937" stroke-width="1"/>
<rect x="138" y="330" width="24" height="24" fill="#334155" stroke="#1f2937" stroke-width="1"/>
<rect x="138" y="306" width="24" height="24" fill="#334155" stroke="#1f2937" stroke-width="1"/>
<rect x="162" y="330" width="24" height="24" fill="#334155" stroke="#1f2937" stroke-width="1"/>
<rect x="186" y="330" width="24" height="24" fill="#334155" stroke="#1f2937" stroke-width="1"/>
<rect x="210" y="330" width="24" height="24" fill="#334155" stroke="#1f2937" stroke-width="1"/>
<rect x="330" y="330" width="24" height="24" fill="#334155" stroke="#1f2937" stroke-width="1"/>
<rect x="330" y="306" width="24" height="24" fill="#334155" stroke="#1f2937" stroke-width="1"/>
<rect x="330" y="282" width="24" height="24" fill="#334155" stroke="#1f2937" stroke-width="1"/>
<rect x="306" y="282" width="24" height="24" fill="#334155" stroke="#1f2937" stroke-width="1"/>
<rect x="282" y="282" width="24" height="24" fill="#334155" stroke="#1f2937" stroke-width="1"/>
<rect x="234" y="258" width="24" height="24" fill="#334155" stroke="#1f2937" stroke-width="1"/>
<rect x="258" y="258" width="24" height="24" fill="#334155" stroke="#1f2937" stroke-width="1"/>
<rect x="258" y="234" width="24" height="24" fill="#334155" stroke="#1f2937" stroke-width="1"/>
<rect x="114" y="258" width="24" height="24" fill="#334155" stroke="#1f2937" stroke-width="1"/>
<rect x="138" y="258" width="24" height="24" fill="#334155" stroke="#1f2937" stroke-width="1"/>
<rect x="162" y="258" width="24" height="24" fill="#334155" stroke="#1f2937" stroke-width="1"/>
<rect x="186" y="258" width="24" height="24" fill="#334155" stroke="#1f2937" stroke-width="1"/>
<rect x="162" y="234" width="24" height="24" fill="#334155" stroke="#1f2937" stroke-width="1"/>
<rect x="114" y="42" width="24" height="24" fill="#334155" stroke="#1f2937" stroke-width="1"/>
<rect x="114" y="66" width="24" height="24" fill="#334155" stroke="#1f2937" stroke-width="1"/>
<rect x="90" y="114" width="24" height="24" fill="#334155" stroke="#1f2937" stroke-width="1"/>
<rect x="90" y="138" width="24" height="24" fill="#334155" stroke="#1f2937" stroke-width="1"/>
<rect x="114" y="138" width="24" height="24" fill="#334155" stroke="#1f2937" stroke-width="1"/>
<rect x="138" y="138" width="24" height="24" fill="#334155" stroke="#1f2937" stroke-width="1"/>
<rect x="162" y="114" width="24" height="24" fill="#334155" stroke="#1f2937" stroke-width="1"/>
<rect x="162" y="90" width="24" height="24" fill="#334155" stroke="#1f2937" stroke-width="1"/>
<rect x="162" y="66" width="24" height="24" fill="#334155" stroke="#1f2937" stroke-width="1"/>
<rect x="162" y="162" width="24" height="24" fill="#334155" stroke="#1f2937" stroke-width="1"/>
<rect x="186" y="162" width="24" height="24" fill="#334155" stroke="#1f2937" stroke-width="1"/>
<rect x="162" y="186" width="24" height="24" fill="#334155" stroke="#1f2937" stroke-width="1"/>
<rect x="234" y="162" width="24" height="24" fill="#334155" stroke="#1f2937" stroke-width="1"/>
<rect x="258" y="162" width="24" height="24" fill="#334155" stroke="#1f2937" stroke-width="1"/>
<rect x="258" y="186" width="24" height="24" fill="#334155" stroke="#1f2937" stroke-width="1"/>
<rect x="282" y="186" width="24" height="24" fill="#334155" stroke="#1f2937" stroke-width="1"/>
<rect x="306" y="210" width="24" height="24" fill="#334155" stroke="#1f2937" stroke-width="1"/>
<rect x="306" y="234" width="24" height="24" fill="#334155" stroke="#1f2937" stroke-width="1"/>
<rect x="354" y="234" width="24" height="24" fill="#334155" stroke="#1f2937" stroke-width="1"/>
<rect x="378" y="234" width="24" height="24" fill="#334155" stroke="#1f2937" stroke-width="1"/>
<rect x="330" y="162" width="24" height="24" fill="#334155" stroke="#1f2937" stroke-width="1"/>
<rect x="330" y="138" width="24" height="24" fill="#334155" stroke="#1f2937" stroke-width="1"/>
<rect x="330" y="114" width="24" height="24" fill="#334155" stroke="#1f2937" stroke-width="1"/>
<rect x="282" y="138" width="24" height="24" fill="#334155" stroke="#1f2937" stroke-width="1"/>
<rect x="282" y="114" width="24" height="24" fill="#334155" stroke="#1f2937" stroke-width="1"/>
<rect x="258" y="90" width="24" height="24" fill="#334155" stroke="#1f2937" stroke-width="1"/>
<rect x="258" y="42" width="24" height="24" fill="#334155" stroke="#1f2937" stroke-width="1"/>
<rect x="354" y="42" width="24" height="24" fill="#334155" stroke="#1f2937" stroke-width="1"/>
<rect x="378" y="42" width="24" height="24" fill="#334155" stroke="#1f2937" stroke-width="1"/>
<rect x="378" y="66" width="24" height="24" fill="#334155" stroke="#1f2937" stroke-width="1"/>
<rect x="378" y="90" width="24" height="24" fill="#334155" stroke="#1f2937" stroke-width="1"/>
<rect x="378" y="114" width="24" height="24" fill="#334155" stroke="#1f2937" stroke-width="1"/>
<rect x="162" y="306" width="24" height="24" fill="#bfdbfe" stroke="#60a5fa" stroke-width="1"/>
<rect x="306" y="306" width="24" height="24" fill="#bfdbfe" stroke="#60a5fa" stroke-width="1"/>
<rect x="306" y="330" width="24" height="24" fill="#bfdbfe" stroke="#60a5fa" stroke-width="1"/>
<rect x="354" y="162" width="24" height="24" fill="#bfdbfe" stroke="#60a5fa" stroke-width="1"/>
<rect x="378" y="162" width="24" height="24" fill="#bfdbfe" stroke="#60a5fa" stroke-width="1"/>
<rect x="354" y="186" width="24" height="24" fill="#bfdbfe" stroke="#60a5fa" stroke-width="1"/>
<rect x="378" y="186" width="24" height="24" fill="#bfdbfe" stroke="#60a5fa" stroke-width="1"/>
<rect x="66" y="234" width="24" height="24" fill="#bfdbfe" stroke="#60a5fa" stroke-width="1"/>
<rect x="90" y="234" width="24" height="24" fill="#bfdbfe" stroke="#60a5fa" stroke-width="1"/>
<rect x="66" y="258" width="24" height="24" fill="#bfdbfe" stroke="#60a5fa" stroke-width="1"/>
<rect x="90" y="258" width="24" height="24" fill="#bfdbfe" stroke="#60a5fa" stroke-width="1"/>
<rect x="234" y="114" width="24" height="24" fill="#bfdbfe" stroke="#60a5fa" stroke-width="1"/>
<rect x="258" y="114" width="24" height="24" fill="#bfdbfe" stroke="#60a5fa" stroke-width="1"/>
<rect x="234" y="138" width="24" height="24" fill="#bfdbfe" stroke="#60a5fa" stroke-width="1"/>
<rect x="258" y="138" width="24" height="24" fill="#bfdbfe" stroke="#60a5fa" stroke-width="1"/>
<rect x="138" y="282" width="24" height="24" fill="#bbf7d0" stroke="#22c55e" stroke-width="1"/>
<rect x="114" y="186" width="24" height="24" fill="#bbf7d0" stroke="#22c55e" stroke-width="1"/>
<rect x="234" y="90" width="24" height="24" fill="#bbf7d0" stroke="#22c55e" stroke-width="1"/>
<rect x="282" y="354" width="24" height="24" fill="#bbf7d0" stroke="#22c55e" stroke-width="1"/>
<rect x="378" y="138" width="24" height="24" fill="#bbf7d0" stroke="#22c55e" stroke-width="1"/>
<rect x="66" y="162" width="24" height="24" fill="#111827" stroke="#000000" stroke-width="1"/>
<rect x="66" y="330" width="24" height="24" fill="#111827" stroke="#000000" stroke-width="1"/>
<rect x="114" y="234" width="24" height="24" fill="#111827" stroke="#000000" stroke-width="1"/>
<rect x="210" y="162" width="24" height="24" fill="#111827" stroke="#000000" stroke-width="1"/>
<rect x="330" y="354" width="24" height="24" fill="#111827" stroke="#000000" stroke-width="1"/>
<rect x="234" y="42" width="24" height="24" fill="#111827" stroke="#000000" stroke-width="1"/>
<rect x="354" y="114" width="24" height="24" fill="#111827" stroke="#000000" stroke-width="1"/>
<rect x="66" y="66" width="24" height="24" fill="#fde68a" stroke="#f59e0b" stroke-width="1"/>
<rect x="138" y="354" width="24" height="24" fill="#fde68a" stroke="#f59e0b" stroke-width="1"/>
<rect x="354" y="306" width="24" height="24" fill="#fde68a" stroke="#f59e0b" stroke-width="1"/>
<rect x="210" y="210" width="24" height="24" fill="#fde68a" stroke="#f59e0b" stroke-width="1"/>
<rect x="306" y="66" width="24" height="24" fill="#fde68a" stroke="#f59e0b" stroke-width="1"/>
<path d="M78,78 L78,102 L78,126 L78,150 L78,174 L78,174 L78,174 L78,174 L78,174 L78,174 L78,174 L78,174 L78,174 L78,174 L78,174 L78,174" fill="none" stroke="#1f2937" stroke-width="3" stroke-linejoin="round" marker-end="url(#trace-arrow)"/>
<circle cx="78" cy="78" r="9" fill="#2563eb" stroke="#ffffff" stroke-width="2"/>
<text x="78" y="82" text-anchor="middle" font-family="sans-serif" font-size="12" font-weight="700" fill="#ffffff">0</text>
<circle cx="78" cy="102" r="9" fill="#2563eb" stroke="#ffffff" stroke-width="2"/>
<text x="78" y="106" text-anchor="middle" font-family="sans-serif" font-size="12" font-weight="700" fill="#ffffff">1</text>
<circle cx="78" cy="126" r="9" fill="#2563eb" stroke="#ffffff" stroke-width="2"/>
<text x="78" y="130" text-anchor="middle" font-family="sans-serif" font-size="12" font-weight="700" fill="#ffffff">2</text>
<circle cx="78" cy="150" r="9" fill="#2563eb" stroke="#ffffff" stroke-width="2"/>
<text x="78" y="154" text-anchor="middle" font-family="sans-serif" font-size="12" font-weight="700" fill="#ffffff">3</text>
<circle cx="78" cy="174" r="9" fill="#2563eb" stroke="#ffffff" stroke-width="2"/>
<text x="78" y="178" text-anchor="middle" font-family="sans-serif" font-size="10" font-weight="700" fill="#ffffff">4-15</text>
<text x="430" y="42" font-family="sans-serif" font-size="13" font-weight="700" fill="#111827">Legend</text>
<rect x="430" y="54" width="14" height="14" rx="2" fill="#fde68a" stroke="#9ca3af"/>
<text x="452" y="66" font-family="sans-serif" font-size="12" fill="#374151">start</text>
<rect x="430" y="78" width="14" height="14" rx="2" fill="#111827" stroke="#9ca3af"/>
<text x="452" y="90" font-family="sans-serif" font-size="12" fill="#374151">bomb</text>
<rect x="430" y="102" width="14" height="14" rx="2" fill="#bfdbfe" stroke="#9ca3af"/>
<text x="452" y="114" font-family="sans-serif" font-size="12" fill="#374151">goal</text>
<rect x="430" y="126" width="14" height="14" rx="2" fill="#bbf7d0" stroke="#9ca3af"/>
<text x="452" y="138" font-family="sans-serif" font-size="12" fill="#374151">medic</text>
<rect x="430" y="150" width="14" height="14" rx="2" fill="#334155" stroke="#9ca3af"/>
<text x="452" y="162" font-family="sans-serif" font-size="12" fill="#374151">wall</text>
<rect x="430" y="174" width="14" height="14" rx="2" fill="#2563eb" stroke="#9ca3af"/>
<text x="452" y="186" font-family="sans-serif" font-size="12" fill="#374151">visited</text>
</svg>
