<svg xmlns="http://www.w3.org/2000/svg" viewBox="0 0 820 300" width="820" height="300" role="img" aria-label="CMDP and probabilistic safety comparison">
  <defs>
    <marker id="docs-cmdp-prob-arrow" markerWidth="10" markerHeight="10" refX="9" refY="3" orient="auto" markerUnits="strokeWidth">
      <path d="M0,0 L0,6 L9,3 z" fill="#4b5563" />
    </marker>
  </defs>
  <rect width="100%" height="100%" fill="#ffffff"/>
  <text x="24" y="30" font-family="sans-serif" font-size="16" font-weight="700" fill="#111827">CMDP and probabilistic safety use the same unsafe signal</text>
  <rect x="30" y="86" width="150" height="72" rx="8" fill="#f3f4f6" stroke="#9ca3af"/>
  <text x="105" y="115" text-anchor="middle" font-family="sans-serif" font-size="13" font-weight="700" fill="#111827">labels</text>
  <text x="105" y="138" text-anchor="middle" font-family="sans-serif" font-size="12" fill="#374151">blue, goal, ...</text>
  <line x1="180" y1="122" x2="232" y2="122" stroke="#4b5563" stroke-width="2" marker-end="url(#docs-cmdp-prob-arrow)"/>
  <rect x="240" y="86" width="162" height="72" rx="8" fill="#eff6ff" stroke="#93c5fd"/>
  <text x="321" y="115" text-anchor="middle" font-family="sans-serif" font-size="13" font-weight="700" fill="#111827">cost_fn(labels)</text>
  <text x="321" y="138" text-anchor="middle" font-family="sans-serif" font-size="12" fill="#374151">cost &gt;= 0.5 is unsafe</text>
  <line x1="402" y1="122" x2="456" y2="122" stroke="#4b5563" stroke-width="2" marker-end="url(#docs-cmdp-prob-arrow)"/>
  <circle cx="500" cy="122" r="38" fill="#fee2e2" stroke="#ef4444" stroke-width="2"/>
  <text x="500" y="117" text-anchor="middle" font-family="sans-serif" font-size="13" font-weight="700" fill="#7f1d1d">u_t</text>
  <text x="500" y="138" text-anchor="middle" font-family="sans-serif" font-size="11" fill="#7f1d1d">unsafe bit</text>
  <path d="M538 112 C590 74 628 74 670 94" fill="none" stroke="#4b5563" stroke-width="2" marker-end="url(#docs-cmdp-prob-arrow)"/>
  <path d="M538 132 C590 180 628 180 670 158" fill="none" stroke="#4b5563" stroke-width="2" marker-end="url(#docs-cmdp-prob-arrow)"/>
  <rect x="680" y="62" width="118" height="70" rx="8" fill="#ecfdf5" stroke="#86efac"/>
  <text x="739" y="90" text-anchor="middle" font-family="sans-serif" font-size="13" font-weight="700" fill="#14532d">cmdp</text>
  <text x="739" y="112" text-anchor="middle" font-family="sans-serif" font-size="12" fill="#166534">sum cost &lt;= budget</text>
  <rect x="680" y="150" width="118" height="70" rx="8" fill="#fff7ed" stroke="#fdba74"/>
  <text x="739" y="178" text-anchor="middle" font-family="sans-serif" font-size="13" font-weight="700" fill="#7c2d12">prob</text>
  <text x="739" y="200" text-anchor="middle" font-family="sans-serif" font-size="12" fill="#9a3412">mean unsafe &lt;= alpha</text>
</svg>
