<svg xmlns="http://www.w3.org/2000/svg" viewBox="0 0 760 310" width="760" height="310" role="img" aria-label="Constraint semantics diagram">
  <defs><marker id="docs-sem-arrow" markerWidth="10" markerHeight="10" refX="9" refY="3" orient="auto" markerUnits="strokeWidth"><path d="M0,0 L0,6 L9,3 z" fill="#4b5563" /></marker></defs>
  <rect width="100%" height="100%" fill="#ffffff"/>
  <text x="24" y="30" font-family="sans-serif" font-size="16" font-weight="700" fill="#111827">Same labels, different constraint semantics</text>
  <rect x="26" y="86" width="160" height="88" rx="8" fill="#f3f4f6" stroke="#9ca3af"/>
  <text x="106" y="117" text-anchor="middle" font-family="sans-serif" font-size="13" font-weight="700" fill="#111827">labels</text>
  <text x="106" y="140" text-anchor="middle" font-family="sans-serif" font-size="12" fill="#374151">blue, goal, ...</text>
  <line x1="186" y1="130" x2="270" y2="78" stroke="#4b5563" stroke-width="1.8" marker-end="url(#docs-sem-arrow)"/>
  <rect x="280" y="58" width="430" height="36" rx="7" fill="#eff6ff" stroke="#93c5fd"/>
  <text x="300" y="81" font-family="sans-serif" font-size="13" font-weight="700" fill="#1f2937">cmdp</text>
  <text x="420" y="81" font-family="sans-serif" font-size="12" fill="#374151">sum cost &lt;= budget</text>
  <line x1="186" y1="130" x2="270" y2="124" stroke="#4b5563" stroke-width="1.8" marker-end="url(#docs-sem-arrow)"/>
  <rect x="280" y="104" width="430" height="36" rx="7" fill="#eff6ff" stroke="#93c5fd"/>
  <text x="300" y="127" font-family="sans-serif" font-size="13" font-weight="700" fill="#1f2937">prob</text>
  <text x="420" y="127" font-family="sans-serif" font-size="12" fill="#374151">unsafe fraction &lt;= alpha</text>
  <line x1="186" y1="130" x2="270" y2="170" stroke="#4b5563" stroke-width="1.8" marker-end="url(#docs-sem-arrow)"/>
  <rect x="280" y="150" width="430" height="36" rx="7" fill="#eff6ff" stroke="#93c5fd"/>
  <text x="300" y="173" font-family="sans-serif" font-size="13" font-weight="700" fill="#1f2937">pctl</text>
  <text x="420" y="173" font-family="sans-serif" font-size="12" fill="#374151">Pr(formula satisfied) &gt;= threshold</text>
  <line x1="186" y1="130" x2="270" y2="216" stroke="#4b5563" stroke-width="1.8" marker-end="url(#docs-sem-arrow)"/>
  <rect x="280" y="196" width="430" height="36" rx="7" fill="#eff6ff" stroke="#93c5fd"/>
  <text x="300" y="219" font-family="sans-serif" font-size="13" font-weight="700" fill="#1f2937">reach_avoid</text>
  <text x="420" y="219" font-family="sans-serif" font-size="12" fill="#374151">reach goal before blue</text>
  <line x1="186" y1="130" x2="270" y2="262" stroke="#4b5563" stroke-width="1.8" marker-end="url(#docs-sem-arrow)"/>
  <rect x="280" y="242" width="430" height="36" rx="7" fill="#eff6ff" stroke="#93c5fd"/>
  <text x="300" y="265" font-family="sans-serif" font-size="13" font-weight="700" fill="#1f2937">ltl_safety</text>
  <text x="420" y="265" font-family="sans-serif" font-size="12" fill="#374151">DFA avoids accepting unsafe state</text>
</svg>
