<svg xmlns="http://www.w3.org/2000/svg" viewBox="0 0 520 190" width="520" height="190" role="img" aria-label="Never blue DFA">
  <defs>
    <marker id="docs-dfa-arrow" markerWidth="10" markerHeight="10" refX="9" refY="3" orient="auto" markerUnits="strokeWidth">
      <path d="M0,0 L0,6 L9,3 z" fill="#111827" />
    </marker>
  </defs>
  <rect width="100%" height="100%" fill="#ffffff"/>
  <text x="24" y="28" font-family="sans-serif" font-size="16" font-weight="700" fill="#111827">Never-blue DFA used by ltl_safety</text>
  <line x1="55" y1="96" x2="91" y2="96" stroke="#111827" stroke-width="2.5" marker-end="url(#docs-dfa-arrow)"/>
  <circle cx="140" cy="96" r="40" fill="#dcfce7" stroke="#166534" stroke-width="3"/>
  <text x="140" y="91" text-anchor="middle" font-family="sans-serif" font-size="14" font-weight="700" fill="#14532d">q0</text>
  <text x="140" y="110" text-anchor="middle" font-family="sans-serif" font-size="11" fill="#14532d">safe</text>
  <circle cx="380" cy="96" r="42" fill="#fee2e2" stroke="#991b1b" stroke-width="3"/>
  <circle cx="380" cy="96" r="34" fill="none" stroke="#991b1b" stroke-width="2"/>
  <text x="380" y="91" text-anchor="middle" font-family="sans-serif" font-size="14" font-weight="700" fill="#7f1d1d">q1</text>
  <text x="380" y="110" text-anchor="middle" font-family="sans-serif" font-size="11" fill="#7f1d1d">unsafe</text>
  <path d="M180 96 C235 52 285 52 338 96" fill="none" stroke="#111827" stroke-width="2.5" marker-end="url(#docs-dfa-arrow)"/>
  <text x="260" y="55" text-anchor="middle" font-family="sans-serif" font-size="13" font-weight="700" fill="#111827">blue</text>
  <path d="M122 58 C86 25 190 25 158 58" fill="none" stroke="#166534" stroke-width="2" marker-end="url(#docs-dfa-arrow)"/>
  <text x="140" y="24" text-anchor="middle" font-family="sans-serif" font-size="11" fill="#166534">implicit not blue loop</text>
  <path d="M362 58 C326 25 430 25 398 58" fill="none" stroke="#991b1b" stroke-width="2" marker-end="url(#docs-dfa-arrow)"/>
  <text x="380" y="24" text-anchor="middle" font-family="sans-serif" font-size="11" fill="#991b1b">implicit loop after violation</text>
</svg>
