<svg xmlns="http://www.w3.org/2000/svg" viewBox="0 0 446 492" width="446" height="492" role="img" aria-label="Unsafe script reaches blue">
  <rect width="100%" height="100%" fill="#ffffff"/>
  <text x="34" y="24" font-family="sans-serif" font-size="16" font-weight="700" fill="#111827">Unsafe script: blue is reached</text>
  <rect x="34" y="34" width="378" height="378" fill="#f9fafb" stroke="#d1d5db"/>
  <rect x="34" y="34" width="42" height="42" fill="#dbeafe"/>
  <rect x="202" y="34" width="42" height="42" fill="#ddd6fe"/>
  <rect x="34" y="202" width="42" height="42" fill="#93c5fd"/>
  <rect x="202" y="202" width="42" height="42" fill="#bbf7d0"/>
  <rect x="370" y="370" width="42" height="42" fill="#dcfce7"/>
  <path d="M76 34V412 M118 34V412 M160 34V412 M202 34V412 M244 34V412 M286 34V412 M328 34V412 M370 34V412 M34 76H412 M34 118H412 M34 160H412 M34 202H412 M34 244H412 M34 286H412 M34 328H412 M34 370H412" stroke="#d1d5db" stroke-width="1"/>
  <text x="38" y="70" font-family="sans-serif" font-size="9" fill="#374151">start</text>
  <text x="206" y="70" font-family="sans-serif" font-size="9" fill="#374151">purple</text>
  <text x="38" y="238" font-family="sans-serif" font-size="9" fill="#374151">blue</text>
  <text x="206" y="238" font-family="sans-serif" font-size="9" fill="#374151">green</text>
  <text x="374" y="406" font-family="sans-serif" font-size="9" fill="#374151">goal</text>
  <polyline points="55,55 55,97 55,139 55,181 55,223" fill="none" stroke="#111827" stroke-width="4" stroke-linejoin="round" stroke-linecap="round" opacity="0.72"/>
  <g font-family="sans-serif" font-size="11" font-weight="700" fill="#ffffff" text-anchor="middle">
    <circle cx="55" cy="55" r="10" fill="#111827" stroke="#ffffff" stroke-width="2"/><text x="55" y="59">0</text>
    <circle cx="55" cy="97" r="10" fill="#111827" stroke="#ffffff" stroke-width="2"/><text x="55" y="101">1</text>
    <circle cx="55" cy="139" r="10" fill="#111827" stroke="#ffffff" stroke-width="2"/><text x="55" y="143">2</text>
    <circle cx="55" cy="181" r="10" fill="#111827" stroke="#ffffff" stroke-width="2"/><text x="55" y="185">3</text>
    <circle cx="55" cy="223" r="12" fill="#b91c1c" stroke="#ffffff" stroke-width="2"/><text x="55" y="227">4</text>
  </g>
  <text x="34" y="440" font-family="sans-serif" font-size="12" fill="#374151">Numbers are reset/step indices from the actual seeded rollout.</text>
</svg>
