<svg xmlns="http://www.w3.org/2000/svg" width="1024" height="415" viewBox="0 0 1024 415" role="img" aria-labelledby="title desc">
  <title id="title">MASA-Safe-RL title art</title>
  <desc id="desc">MASA-Safe-RL wordmark with shield-shaped safe reinforcement learning art: agent nodes, hazards, constraints, and a safe policy trajectory.</desc>
  <defs>
    <linearGradient id="backgroundGradient" x1="0" y1="0" x2="1024" y2="415" gradientUnits="userSpaceOnUse">
      <stop offset="0" stop-color="#FFFFFF"/>
      <stop offset="0.58" stop-color="#F8FCFB"/>
      <stop offset="1" stop-color="#EFF8F3"/>
    </linearGradient>
    <linearGradient id="boundaryGradient" x1="62" y1="36" x2="326" y2="338" gradientUnits="userSpaceOnUse">
      <stop offset="0" stop-color="#B9403F"/>
      <stop offset="0.48" stop-color="#E17643"/>
      <stop offset="1" stop-color="#2FBF71"/>
    </linearGradient>
    <linearGradient id="policyGradient" x1="94" y1="253" x2="286" y2="119" gradientUnits="userSpaceOnUse">
      <stop offset="0" stop-color="#1AA7EC"/>
      <stop offset="0.55" stop-color="#33C7A0"/>
      <stop offset="1" stop-color="#5DDD78"/>
    </linearGradient>
    <linearGradient id="fieldGradient" x1="74" y1="58" x2="307" y2="318" gradientUnits="userSpaceOnUse">
      <stop offset="0" stop-color="#FFFFFF"/>
      <stop offset="1" stop-color="#EFFAF5"/>
    </linearGradient>
    <linearGradient id="ruleGradient" x1="421" y1="214" x2="927" y2="214" gradientUnits="userSpaceOnUse">
      <stop offset="0" stop-color="#1AA7EC"/>
      <stop offset="0.48" stop-color="#2FBF71"/>
      <stop offset="1" stop-color="#FFB84D"/>
    </linearGradient>
    <radialGradient id="glow" cx="50%" cy="40%" r="60%">
      <stop offset="0" stop-color="#DDF7FF" stop-opacity="0.9"/>
      <stop offset="1" stop-color="#FFFFFF" stop-opacity="0"/>
    </radialGradient>
    <filter id="softShadow" x="-22%" y="-18%" width="144%" height="140%" color-interpolation-filters="sRGB">
      <feDropShadow dx="0" dy="14" stdDeviation="14" flood-color="#081D33" flood-opacity="0.16"/>
    </filter>
    <filter id="nodeShadow" x="-40%" y="-40%" width="180%" height="180%" color-interpolation-filters="sRGB">
      <feDropShadow dx="0" dy="5" stdDeviation="4" flood-color="#081D33" flood-opacity="0.22"/>
    </filter>
    <clipPath id="safeField">
      <path d="M194 25C232 52 278 70 327 81V160C327 246 276 312 194 347C112 312 61 246 61 160V81C110 70 156 52 194 25Z"/>
    </clipPath>
    <clipPath id="rightArtClip">
      <rect x="548" y="42" width="420" height="329" rx="34"/>
    </clipPath>
  </defs>

  <rect width="1024" height="415" fill="url(#backgroundGradient)"/>

  <g clip-path="url(#rightArtClip)" opacity="0.18">
    <path d="M565 78H953M565 126H953M565 174H953M565 222H953M565 270H953M565 318H953M613 46V370M661 46V370M709 46V370M757 46V370M805 46V370M853 46V370M901 46V370" fill="none" stroke="#DCEBED" stroke-width="2"/>
    <path d="M584 327C641 268 680 254 722 274C764 294 792 258 824 207C850 165 889 138 947 122" fill="none" stroke="#C8EFE3" stroke-width="30" stroke-linecap="round" stroke-linejoin="round"/>
    <path d="M584 327C641 268 680 254 722 274C764 294 792 258 824 207C850 165 889 138 947 122" fill="none" stroke="url(#policyGradient)" stroke-width="9" stroke-linecap="round" stroke-linejoin="round"/>
    <rect x="617" y="101" width="32" height="32" rx="8" fill="#FFB84D"/>
    <rect x="843" y="244" width="36" height="36" rx="9" fill="#FF6B5F"/>
    <path d="M851 253L871 272M872 253L852 272" stroke="#FFFFFF" stroke-width="4" stroke-linecap="round"/>
    <rect x="913" y="288" width="36" height="36" rx="9" fill="#2FBF71"/>
    <path d="M921 306L931 316L944 297" fill="none" stroke="#FFFFFF" stroke-width="5" stroke-linecap="round" stroke-linejoin="round"/>
    <circle cx="617" cy="282" r="10" fill="#081D33"/>
    <circle cx="710" cy="270" r="10" fill="#081D33"/>
    <circle cx="816" cy="205" r="10" fill="#081D33"/>
    <circle cx="923" cy="126" r="14" fill="#2FBF71"/>
  </g>

  <g transform="translate(45 20) scale(0.93)">
    <g filter="url(#softShadow)">
      <path d="M194 25C232 52 278 70 327 81V160C327 246 276 312 194 347C112 312 61 246 61 160V81C110 70 156 52 194 25Z" fill="url(#fieldGradient)" stroke="url(#boundaryGradient)" stroke-width="10" stroke-linejoin="round"/>
      <path d="M194 49C228 73 267 89 307 98V161C307 232 267 288 194 322C121 288 81 232 81 161V98C121 89 160 73 194 49Z" fill="url(#glow)"/>
    </g>
    <g clip-path="url(#safeField)">
      <path d="M71 113H318M55 158H329M47 203H319M62 248H297M107 65V318M154 42V337M201 34V332M248 63V302M294 99V247" fill="none" stroke="#CFE2E6" stroke-width="4" opacity="0.72"/>
      <path d="M72 292C106 258 117 227 107 196C98 168 112 139 140 108C163 83 181 61 194 42M54 170C85 176 116 169 146 149C181 126 214 122 246 137C278 153 304 151 324 131" fill="none" stroke="#E6F1F1" stroke-width="3" opacity="0.9"/>
      <rect x="94" y="104" width="34" height="34" rx="9" fill="#FFB84D"/>
      <rect x="214" y="96" width="32" height="32" rx="9" fill="#E9F5F6"/>
      <path d="M101 256C124 222 148 203 172 198C203 192 213 169 233 144C248 125 268 118 286 120" fill="none" stroke="#DFF8EF" stroke-width="31" stroke-linecap="round" stroke-linejoin="round" opacity="0.94"/>
      <path d="M101 256C124 222 148 203 172 198C203 192 213 169 233 144C248 125 268 118 286 120" fill="none" stroke="url(#policyGradient)" stroke-width="14" stroke-linecap="round" stroke-linejoin="round"/>
    </g>
    <g filter="url(#nodeShadow)">
      <circle cx="101" cy="256" r="14" fill="#081D33"/>
      <circle cx="101" cy="256" r="7" fill="#FFFFFF"/>
      <circle cx="172" cy="198" r="14" fill="#081D33"/>
      <circle cx="172" cy="198" r="7" fill="#FFFFFF"/>
      <circle cx="233" cy="144" r="14" fill="#081D33"/>
      <circle cx="233" cy="144" r="7" fill="#FFFFFF"/>
      <circle cx="286" cy="120" r="18" fill="#2FBF71"/>
      <circle cx="286" cy="120" r="8" fill="#FFFFFF"/>
      <circle cx="136" cy="137" r="10" fill="#6D5DFB"/>
      <circle cx="259" cy="246" r="10" fill="#081D33"/>
      <circle cx="259" cy="246" r="4" fill="#FFFFFF"/>
    </g>
    <g clip-path="url(#safeField)" opacity="0.88">
      <path d="M73 303C113 333 162 348 212 336" fill="none" stroke="#2FBF71" stroke-width="5" stroke-linecap="round"/>
      <path d="M293 88C315 113 327 143 329 176" fill="none" stroke="#1AA7EC" stroke-width="5" stroke-linecap="round"/>
    </g>
  </g>

  <g font-family="Noto Sans, DejaVu Sans, Arial, sans-serif">
    <text x="421" y="152" font-size="80" font-weight="850">
      <tspan fill="#081D33">MASA</tspan><tspan fill="#2FBF71">-Safe-</tspan><tspan fill="#081D33">RL</tspan>
    </text>
    <rect x="424" y="186" width="504" height="7" rx="3.5" fill="url(#ruleGradient)"/>
    <text x="424" y="247" font-size="33" font-weight="650" fill="#081D33">Safe learning across agents,</text>
    <text x="424" y="292" font-size="33" font-weight="650" fill="#081D33">constraints, and worlds</text>
    <g font-size="17" font-weight="800" letter-spacing="2.4" fill="#247C77">
      <g transform="translate(426 339)">
        <circle cx="0" cy="0" r="5" fill="#FFB84D"/>
        <text x="16" y="6">SINGLE AGENT</text>
      </g>
      <g transform="translate(605 339)">
        <circle cx="0" cy="0" r="5" fill="#FF6B5F"/>
        <text x="16" y="6">MULTI-AGENT</text>
      </g>
      <g transform="translate(785 339)">
        <circle cx="0" cy="0" r="5" fill="#2FBF71"/>
        <text x="16" y="6">CONSTRAINED RL</text>
      </g>
    </g>
  </g>
</svg>
